<svg width="30" height="42" viewBox="0 0 30 42" fill="none" xmlns="http://www.w3.org/2000/svg">
<path d="M29.5 40.1875C29.5 40.3542 29.4583 40.5 29.375 40.625C29.2917 40.75 29.1458 40.8542 28.9375 40.9375C28.7292 41 28.4479 41.0521 28.0938 41.0938C27.7604 41.1562 27.3438 41.1875 26.8438 41.1875C26.3021 41.1875 25.8646 41.1562 25.5312 41.0938C25.1979 41.0521 24.9271 41 24.7188 40.9375C24.5104 40.8542 24.3646 40.75 24.2812 40.625C24.1979 40.5 24.1562 40.3542 24.1562 40.1875V22.25H5.75V40.1875C5.75 40.3542 5.70833 40.5 5.625 40.625C5.54167 40.75 5.39583 40.8542 5.1875 40.9375C4.97917 41 4.69792 41.0521 4.34375 41.0938C4.01042 41.1562 3.58333 41.1875 3.0625 41.1875C2.5625 41.1875 2.13542 41.1562 1.78125 41.0938C1.42708 41.0521 1.14583 41 0.9375 40.9375C0.729167 40.8542 0.583333 40.75 0.5 40.625C0.416667 40.5 0.375 40.3542 0.375 40.1875V1.375C0.375 1.20833 0.416667 1.0625 0.5 0.9375C0.583333 0.8125 0.729167 0.71875 0.9375 0.65625C1.14583 0.572917 1.42708 0.510417 1.78125 0.46875C2.13542 0.40625 2.5625 0.375 3.0625 0.375C3.58333 0.375 4.01042 0.40625 4.34375 0.46875C4.69792 0.510417 4.97917 0.572917 5.1875 0.65625C5.39583 0.71875 5.54167 0.8125 5.625 0.9375C5.70833 1.0625 5.75 1.20833 5.75 1.375V17.5625H24.1562V1.375C24.1562 1.20833 24.1979 1.0625 24.2812 0.9375C24.3646 0.8125 24.5104 0.71875 24.7188 0.65625C24.9271 0.572917 25.1979 0.510417 25.5312 0.46875C25.8646 0.40625 26.3021 0.375 26.8438 0.375C27.3438 0.375 27.7604 0.40625 28.0938 0.46875C28.4479 0.510417 28.7292 0.572917 28.9375 0.65625C29.1458 0.71875 29.2917 0.8125 29.375 0.9375C29.4583 1.0625 29.5 1.20833 29.5 1.375V40.1875Z" fill="#009444"/>
</svg>
